<?xml version="1.0" encoding="UTF-8" standalone="no"?>
<svg
   xmlns:dc="http://purl.org/dc/elements/1.1/"
   xmlns:cc="http://creativecommons.org/ns#"
   xmlns:rdf="http://www.w3.org/1999/02/22-rdf-syntax-ns#"
   xmlns:svg="http://www.w3.org/2000/svg"
   xmlns="http://www.w3.org/2000/svg"
   xmlns:sodipodi="http://sodipodi.sourceforge.net/DTD/sodipodi-0.dtd"
   xmlns:inkscape="http://www.inkscape.org/namespaces/inkscape"
   version="1.1"
   id="svg2"
   viewBox="0 0 1055.9055 1055.9055"
   height="298mm"
   width="298mm"
   inkscape:version="0.91 r13725"
   sodipodi:docname="do.svg">
  <sodipodi:namedview
     pagecolor="#ffffff"
     bordercolor="#666666"
     borderopacity="1"
     objecttolerance="10"
     gridtolerance="10"
     guidetolerance="10"
     inkscape:pageopacity="0"
     inkscape:pageshadow="2"
     inkscape:window-width="1366"
     inkscape:window-height="747"
     id="namedview7"
     showgrid="false"
     inkscape:zoom="0.53431628"
     inkscape:cx="527.95276"
     inkscape:cy="527.95276"
     inkscape:window-x="0"
     inkscape:window-y="21"
     inkscape:window-maximized="1"
     inkscape:current-layer="svg2" />
  <defs
     id="defs4" />
  <metadata
     id="metadata7">
    <rdf:RDF>
      <cc:Work
         rdf:about="">
        <dc:format>image/svg+xml</dc:format>
        <dc:type
           rdf:resource="http://purl.org/dc/dcmitype/StillImage" />
        <dc:title />
      </cc:Work>
    </rdf:RDF>
  </metadata>
  <path
     style="fill:#3b3b3b;fill-opacity:1"
     d="m 41.798057,995.66879 c -2.491495,-0.5264 -4.529993,-2.28494 -4.529993,-3.90787 0,-2.2935 0.867484,-2.48655 3.894304,-0.86664 6.441005,3.44711 15.667694,2.38244 21.294025,-2.45715 4.447164,-3.82528 5.585843,-7.07901 7.222016,-20.63663 4.146534,-34.35913 13.660668,-55.14052 35.025801,-76.50563 36.66787,-36.66788 88.52296,-45.00961 135.91018,-21.86334 35.64712,17.41181 64.25211,60.91737 64.39681,97.94163 0.038,9.75693 4.5891,20.64453 9.7936,23.4299 5.8146,3.11189 16.80063,2.68401 21.84738,-0.85085 7.28736,-5.10426 9.1759,-14.66661 6.63365,-33.58823 -5.6861,-42.32078 -25.96989,-78.7448 -58.10092,-104.33308 -7.04515,-5.61056 -16.37224,-12.01867 -20.72685,-14.24024 l -7.9175,-4.0392 11.29484,-12.4812 c 13.51356,-14.93294 24.09418,-35.53692 28.13671,-54.79144 3.70819,-17.66199 3.70819,-24.61796 0,-42.27994 -15.12506,-72.04035 -92.94514,-110.43904 -157.55489,-77.7422 -25.81214,13.06267 -47.397634,37.64303 -55.932444,63.69277 -5.547708,16.9326 -5.547708,53.44619 0,70.3788 4.586815,13.99974 21.047944,39.57851 29.484864,45.81621 3.20739,2.37132 5.83162,4.88899 5.83162,5.5948 0,0.70581 -6.67114,5.50932 -14.82479,10.67446 -25.683143,16.26964 -48.858484,44.18621 -60.809309,73.24967 -3.753129,9.12735 -4.813973,10.48368 -4.8513,6.20257 -0.06322,-7.25532 7.763663,-24.64073 17.642509,-39.18796 9.519185,-14.01761 32.776087,-36.43449 45.5917,-43.94494 5.05883,-2.96467 9.19788,-5.77002 9.19788,-6.23411 0,-0.4641 -4.08388,-5.85771 -9.07529,-11.98582 -18.643598,-22.88929 -25.919068,-44.10534 -25.847595,-75.37428 0.05456,-23.90846 3.45002,-38.38486 13.45816,-57.37991 8.968037,-17.02092 27.747315,-34.92171 45.910285,-43.76262 18.31281,-8.91384 30.92102,-11.60395 54.38613,-11.60395 33.36623,0 58.14378,9.93206 80.22137,32.15664 28.16617,28.35373 38.78709,70.34903 28.23061,111.62443 -4.77455,18.66837 -11.347,31.27807 -23.60876,45.29512 -5.02053,5.73919 -8.79377,10.69766 -8.38502,11.01883 0.40875,0.32117 5.98467,4.01142 12.39091,8.20057 31.06722,20.31531 54.85325,53.51553 64.04152,89.38828 4.96002,19.36481 7.03723,47.64773 4.05777,55.2496 -2.98988,7.62844 -14.25394,12.24737 -25.6865,10.53293 -11.51592,-1.72691 -16.81392,-8.39111 -16.81392,-21.14976 0,-13.43395 -6.82649,-38.42387 -14.48601,-53.0292 -7.97489,-15.20676 -30.75512,-38.59973 -45.91389,-47.14886 -41.89152,-23.62568 -87.84375,-19.53485 -126.0675,11.22295 -24.514515,19.72633 -41.261298,51.81742 -44.342679,84.97193 -1.641367,17.66044 -5.892091,23.58202 -17.836171,24.84707 -4.429326,0.46913 -10.091817,0.42228 -12.583313,-0.10409 z m 326.199583,-0.0793 c -2.46945,-0.47699 -6.31994,-3.19378 -8.55665,-6.03733 -7.8303,-9.95461 -4.06705,-49.89629 7.39997,-78.5404 12.62803,-31.54423 36.20548,-57.66952 70.84223,-78.49768 0.42301,-0.25437 -3.65398,-5.30579 -9.05999,-11.22537 -18.29689,-20.03509 -26.94241,-44.40655 -26.94241,-75.94983 0,-34.09569 10.70259,-60.77244 32.95381,-82.13918 21.9586,-21.08574 46.78115,-30.6073 79.79268,-30.6073 33.01153,0 57.83407,9.52156 79.79267,30.6073 22.25122,21.36674 32.9538,48.04349 32.9538,82.13918 0,31.54328 -8.64551,55.91474 -26.94239,75.94985 -5.40602,5.91958 -9.48301,10.99089 -9.05999,11.26958 0.42299,0.27869 6.14645,3.99199 12.71877,8.25179 42.95047,27.83802 69.5902,77.08967 69.5902,128.65868 0,17.61205 -3.79762,24.27651 -15.0348,26.38462 -9.24046,1.73352 -22.59123,-1.96764 -25.2904,-7.01111 -1.17726,-2.19969 -2.98281,-11.38522 -4.01237,-20.41231 -3.54447,-31.07746 -14.90309,-54.9133 -35.80177,-75.12928 -46.42874,-44.91202 -111.3987,-44.91202 -157.82744,0 -20.89869,20.21598 -32.25731,44.05182 -35.80178,75.12928 -2.31209,20.27207 -4.14332,23.82009 -13.65799,26.4625 -7.67556,2.13164 -10.13707,2.22667 -18.05615,0.69704 z m 22.16035,-8.18186 c 4.5142,-4.7118 5.65683,-8.39245 7.41005,-23.86922 3.35113,-29.58216 13.10413,-51.14738 31.78501,-70.28104 19.63957,-20.11556 41.04405,-31.16693 68.46426,-35.34884 55.21346,-8.42069 109.3367,24.80787 128.39605,78.82783 1.65014,4.67703 3.93305,16.73794 5.07315,26.80205 1.75323,15.47677 2.89585,19.15742 7.41006,23.86922 7.03676,7.34481 18.06341,7.64139 26.11486,0.70239 5.37803,-4.63499 5.64141,-5.67287 5.49216,-21.6433 -0.44913,-48.06143 -29.25948,-97.5292 -72.82645,-125.04409 -6.92082,-4.37085 -12.58332,-8.40424 -12.58332,-8.96303 0,-0.55882 4.96383,-6.37755 11.03074,-12.93051 12.17152,-13.14671 23.56556,-34.91661 27.0273,-51.63937 14.00594,-67.65931 -39.42801,-133.28399 -108.52458,-133.28399 -59.99422,0 -110.73316,50.73894 -110.73316,110.73315 0,26.73471 10.89333,54.37807 29.23587,74.19023 6.06691,6.55297 11.03074,12.34674 11.03074,12.87504 0,0.52832 -5.85761,4.74876 -13.01689,9.37876 -39.27254,25.39808 -65.19662,65.57983 -71.78593,111.26662 -1.33073,9.2266 -1.78677,20.13388 -1.0134,24.23839 2.88415,15.30745 21.42746,21.16914 32.01348,10.11973 z m -22.97398,-4.766 c -3.8279,-3.8279 -4.17815,-5.86028 -3.20955,-18.6233 3.87561,-51.06639 34.38571,-99.0443 77.21474,-121.42208 5.9484,-3.10798 10.81743,-6.89443 10.82005,-8.41431 0.002,-1.51988 -5.43921,-8.58309 -12.093,-15.696 -40.53716,-43.33436 -40.18059,-105.8014 0.83807,-146.82003 41.27113,-41.27114 106.07478,-41.27114 147.34592,0 41.12075,41.12075 41.38289,103.47748 0.61817,147.05508 -6.77474,7.24221 -11.8615,14.35652 -11.30391,15.80956 0.5576,1.45304 7.14849,6.2148 14.64648,10.58167 35.51719,20.68552 61.41301,57.61485 70.18679,100.09148 6.09677,29.51634 2.99291,41.73477 -10.602,41.73477 -9.15362,0 -12.67855,-5.87368 -14.52665,-24.20598 -2.22708,-22.09176 -8.44223,-39.64922 -20.32388,-57.41373 -15.93919,-23.8311 -41.21885,-42.2824 -69.14802,-50.47031 -16.40035,-4.80803 -50.03955,-4.80803 -66.43989,0 -27.92917,8.18791 -53.20883,26.63921 -69.14802,50.47031 -11.88165,17.76451 -18.0968,35.32197 -20.32388,57.41373 -1.8481,18.33232 -5.37303,24.206 -14.52664,24.206 -3.16355,0 -7.65163,-1.92369 -10.02478,-4.29684 z M 530.19697,820.91512 c 19.7062,-2.67443 41.7017,-19.03706 52.28666,-38.89647 30.07363,-56.42393 -17.37361,-123.13814 -80.36162,-112.99422 -73.74738,11.87668 -88.8428,111.86265 -22.00219,145.73336 10.0149,5.07493 29.07489,9.12156 37.32745,7.92502 2.21466,-0.32111 7.95203,-1.11657 12.7497,-1.76769 z m -29.7718,-5.21227 c -33.9166,-6.9638 -57.00917,-35.46597 -57.00917,-70.36397 0,-21.33167 5.91721,-35.89457 20.51695,-50.49432 14.59976,-14.59974 29.16266,-20.51696 50.49433,-20.51696 21.33167,0 35.89457,5.91722 50.49431,20.51696 14.59974,14.59975 20.51696,29.16265 20.51696,50.49432 0,21.15271 -5.70656,35.20175 -20.37784,50.1683 -16.75211,17.08927 -41.73953,24.8967 -64.63554,20.19567 z m 43.84584,-9.93665 c 14.38656,-7.66797 24.02236,-17.51607 31.96737,-32.67175 4.81365,-9.1824 5.58284,-12.98981 5.6072,-27.75557 0.026,-15.76204 -0.52815,-18.14165 -7.01841,-30.13698 l -7.04664,-13.02364 -1.13005,9.77812 c -1.49906,12.97132 -6.72358,17.27586 -20.96813,17.27586 -13.53991,0 -20.30134,-4.89764 -22.18939,-16.07287 -1.61858,-9.58029 1.83543,-21.40783 7.06982,-24.20919 2.0532,-1.09882 6.73713,-2.03792 10.40876,-2.08686 l 6.67568,-0.089 -8.05332,-4.39034 c -9.64969,-5.26062 -36.11037,-6.24552 -46.78433,-1.74136 -7.57727,3.19741 -7.12021,5.29341 1.53166,7.02377 8.15322,1.63065 12.94824,12.33621 11.0864,24.75189 -1.78144,11.87945 -8.31284,16.81393 -22.25543,16.81393 -14.24455,0 -19.46906,-4.30454 -20.96813,-17.27586 l -1.13004,-9.7781 -7.04665,13.02364 c -6.49026,11.99533 -7.04443,14.37494 -7.01842,30.13698 0.0244,14.71114 0.80093,18.58656 5.53292,27.60895 14.23658,27.14469 37.57761,41.57644 65.01557,40.19912 11.36129,-0.5703 16.70689,-2.04725 26.71356,-7.38075 z m -46.4537,-85.63824 c 10.37465,-11.94018 1.92693,-31.16232 -13.69514,-31.16232 -14.26295,0 -23.32856,13.3448 -17.92604,26.38759 5.16845,12.47778 22.63633,15.11538 31.62118,4.77473 z m -23.5105,-4.25388 c -5.24705,-6.67052 -5.29065,-11.69727 -0.14618,-16.84179 8.66308,-8.66308 22.14664,-2.81361 22.14664,9.60769 0,11.95898 -14.52664,16.73557 -22.0005,7.2341 z m 80.20347,8.41978 c 11.44999,-5.92102 12.98844,-23.2451 2.77749,-31.27702 -12.25828,-9.64238 -30.78051,-1.07687 -30.78051,14.23428 0,15.49921 14.2348,24.16256 28.00302,17.04274 z m -17.48839,-6.24909 c -5.64108,-3.95118 -6.08235,-14.92011 -0.79279,-19.7071 5.39904,-4.88607 15.55451,-4.28662 19.35729,1.14261 4.2045,6.00276 3.94779,10.05459 -1.03864,16.3938 -4.72282,6.00407 -10.95153,6.77554 -17.52586,2.17069 z m 155.06644,276.0612 c -9.07903,-4.09655 -11.19756,-10.8634 -9.80785,-31.32745 3.48136,-51.26499 28.44921,-95.27872 69.14531,-121.89053 6.40626,-4.18915 11.98217,-7.8794 12.39092,-8.20057 0.40874,-0.32116 -3.36449,-5.27963 -8.38502,-11.01883 -12.26176,-14.01705 -18.83421,-26.62675 -23.60876,-45.29512 -4.71059,-18.4182 -5.04187,-38.75317 -0.94838,-58.21455 8.30694,-39.49307 39.67981,-72.29167 78.79617,-82.37703 14.30502,-3.68823 44.00768,-4.18389 59.50688,-0.99298 17.70397,3.6448 38.95173,15.28644 52.66339,28.85426 22.22503,21.9918 32.10937,47.07867 32.18849,81.69571 0.0715,31.26895 -7.20399,52.485 -25.84759,75.37428 -4.99141,6.12811 -9.07528,11.52173 -9.07528,11.98582 0,0.46409 4.13904,3.26944 9.19788,6.23411 12.8156,7.51045 36.07251,29.92733 45.59169,43.94494 9.87885,14.54723 17.70579,31.93264 17.64252,39.18796 -0.0373,4.28111 -1.09818,2.92478 -4.85131,-6.20257 -11.95082,-29.06346 -35.12617,-56.98003 -60.80931,-73.24967 -8.15364,-5.16514 -14.82479,-9.96865 -14.82479,-10.67446 0,-0.70581 2.62423,-3.22348 5.83163,-5.5948 8.43692,-6.2377 24.89805,-31.81647 29.48485,-45.81621 5.54772,-16.9326 5.54772,-53.4462 0,-70.3788 -5.32674,-16.25817 -21.06756,-39.24349 -33.87301,-49.46259 -67.25543,-53.67179 -162.19654,-19.60788 -179.82303,64.51869 -7.07803,33.78164 3.59678,69.03787 29.47695,97.35491 l 10.20738,11.16851 -7.93952,4.05046 c -4.36674,2.22773 -13.70375,8.64091 -20.7489,14.25147 -32.13103,25.58828 -52.41481,62.0123 -58.10092,104.33308 -2.54225,18.92162 -0.65371,28.48397 6.63364,33.58823 5.04675,3.53486 16.03279,3.96274 21.8474,0.85085 5.20449,-2.78537 9.75546,-13.67297 9.7936,-23.4299 0.14475,-37.02426 28.74969,-80.52982 64.39679,-97.94162 47.56946,-23.23528 100.21573,-14.50024 136.90645,22.71545 20.41947,20.71165 29.95827,41.91799 34.02954,75.65351 1.63618,13.55762 2.77486,16.81135 7.22202,20.63663 5.83702,5.0208 18.67837,6.21928 22.77234,2.12532 1.87909,-1.8791 2.41599,-1.7052 2.41599,0.78259 0,3.90095 -10.59664,6.25873 -19.82959,4.41214 -9.65762,-1.93153 -13.59555,-8.43009 -15.1331,-24.9734 -3.06799,-33.01046 -19.8562,-65.13673 -44.32948,-84.82987 -38.22373,-30.75781 -84.17597,-34.84864 -126.06749,-11.22295 -15.15877,8.54912 -37.93899,31.94209 -45.91389,47.14885 -7.69338,14.66993 -14.48602,39.61051 -14.48602,53.18845 0,12.98161 -5.69553,19.5747 -18.11997,20.97554 -5.70913,0.6437 -11.4857,-0.073 -15.61862,-1.93786 z M 41.394042,984.03812 c -1.323885,-1.59518 -3.473316,-2.49117 -4.776504,-1.99111 -1.702835,0.65338 -2.369468,-3.91806 -2.369468,-16.24863 0,-11.96578 0.691075,-16.8926 2.28374,-16.28139 1.360427,0.52205 2.812219,-2.42854 3.590895,-7.29811 5.680248,-35.52236 36.024917,-77.20873 71.577045,-98.32984 7.78516,-4.62509 14.13605,-9.43849 14.11307,-10.69646 -0.023,-1.25795 -5.34055,-7.5114 -11.81689,-13.89653 -54.743953,-53.9731 -33.695336,-146.98394 39.11739,-172.85402 16.79836,-5.9684 42.54063,-7.19482 59.31446,-2.82589 39.51914,10.29318 69.20733,41.16272 77.4989,80.58274 3.96624,18.85639 3.78327,27.63404 -0.96285,46.19121 -5.13645,20.08326 -13.95107,35.46191 -28.59855,49.89511 -6.43365,6.33956 -11.69757,12.33563 -11.69757,13.32462 0,0.98897 6.0859,5.31505 13.5242,9.61351 16.65539,9.62481 40.25721,31.6129 50.66894,47.20461 11.33209,16.96992 19.90416,39.15002 23.61171,61.09481 4.39102,25.99015 1.44821,35.41571 -11.05731,35.41571 -10.16339,0 -12.53481,-3.72657 -14.65606,-23.03105 -3.61447,-32.89377 -15.77819,-57.50526 -39.32915,-79.57685 -15.64186,-14.6593 -35.89787,-25.90552 -54.97561,-30.52269 -15.83297,-3.83189 -46.69632,-3.29951 -61.40657,1.05923 -50.41288,14.93769 -85.803645,57.44178 -90.731049,108.96749 -1.709217,17.87315 -4.824925,23.10387 -13.761997,23.10387 -3.714533,0 -7.836886,-1.30515 -9.160772,-2.90034 z M 210.07463,819.40666 c 21.46315,-5.42183 42.80249,-26.06582 51.01709,-49.35463 5.96682,-16.91621 4.54569,-41.34244 -3.36805,-57.88921 -22.92478,-47.93342 -87.11186,-59.15937 -124.49734,-21.77389 -5.28404,5.28404 -12.50183,15.48688 -16.03954,22.67298 -5.87618,11.93623 -6.43038,14.72262 -6.4114,32.2346 0.0181,16.55674 0.75759,20.74731 5.4277,30.75094 2.97382,6.37009 10.11327,16.55823 15.86543,22.6403 20.36792,21.53607 46.88752,28.57984 78.00611,20.71891 z M 172.16117,815.066 c -13.72837,-3.09388 -22.03493,-7.41789 -32.61896,-16.97992 -38.45704,-34.74365 -28.34094,-96.59153 19.36197,-118.37529 17.30445,-7.90213 39.41687,-7.86493 57.04692,0.096 13.36525,6.03514 15.88741,9.15882 7.39513,9.15882 -6.87378,0 -16.95845,10.14412 -16.95845,17.05842 0,13.15716 11.61537,22.94344 24.00244,20.22278 7.23272,-1.58857 14.25083,-9.67136 14.25083,-16.41275 0,-7.73009 3.20033,-5.49291 8.30874,5.80817 3.95128,8.74128 4.77791,13.87907 4.77791,29.69661 0,16.40798 -0.74325,20.7006 -5.22899,30.19996 -14.07325,29.80264 -48.44586,46.71447 -80.33754,39.5272 z m 42.68074,-7.93205 c 14.41438,-7.05723 28.22613,-20.93302 35.30739,-35.47109 7.14076,-14.66021 7.59611,-36.56163 1.04965,-50.48397 -3.07999,-6.55019 -4.29953,-7.84556 -4.40234,-4.67612 -0.39981,12.32384 -27.34541,17.92256 -37.48035,7.78762 -10.10048,-10.10048 -4.86711,-35.82622 7.68161,-37.76071 3.32242,-0.51219 1.34881,-1.90298 -7.5901,-5.34875 -14.58844,-5.62355 -33.32996,-5.256 -47.17594,0.92518 l -8.92265,3.98331 11.6755,0 c 10.26066,0 12.25683,0.67584 16.47264,5.57703 7.81106,9.08088 6.15387,27.89425 -3.08169,34.98507 -1.75695,1.34894 -8.32342,2.48143 -14.59214,2.51666 -10.29267,0.0578 -11.90299,-0.53652 -16.60998,-6.13044 -5.70799,-6.78357 -7.02874,-18.73148 -2.94642,-26.6545 1.59644,-3.09841 0.0745,-2.3158 -5.15127,2.64902 -4.07943,3.87566 -10.26859,12.8354 -13.75369,19.91055 -8.99738,18.26563 -8.9461,34.62744 0.16651,53.13777 7.91326,16.07413 24.13083,31.63334 39.13658,37.54783 15.18709,5.98597 34.89498,5.00701 50.21671,-2.49446 z m -38.95656,-85.00282 c 7.6514,-6.43824 9.63562,-14.78396 5.44266,-22.89225 -3.85896,-7.46238 -8.72936,-10.27327 -17.80048,-10.27327 -17.0861,0 -24.28304,20.72403 -11.36163,32.71661 7.56467,7.02088 15.72554,7.17533 23.71945,0.44891 z m -18.43243,-3.18929 c -5.39372,-3.13777 -7.9052,-11.2341 -5.12393,-16.51806 3.01903,-5.73568 5.61854,-7.34976 11.89739,-7.38735 6.74538,-0.0405 11.42844,3.70509 13.05074,10.43784 1.01563,4.21486 0.15664,6.58828 -3.82494,10.56998 -5.47294,5.47294 -10.1243,6.31531 -15.99926,2.89759 z m 59.00151,-1.78961 c -8.26353,-8.26353 -2.70813,-22.14663 8.86212,-22.14663 3.85685,0 8.01134,1.53692 9.95248,3.68185 7.33246,8.10227 1.09182,22.49144 -9.75461,22.49144 -2.76833,0 -6.84532,-1.81199 -9.05999,-4.02666 z m 478.31271,266.62544 c -5.27474,-5.27473 -5.78274,-12.14472 -2.38515,-32.25492 3.70754,-21.94479 12.27963,-44.12489 23.61172,-61.09481 10.41172,-15.59171 34.01353,-37.5798 50.66892,-47.20461 7.43831,-4.29846 13.5242,-8.62454 13.5242,-9.61351 0,-0.98899 -5.26391,-6.98506 -11.69756,-13.32462 -14.64748,-14.4332 -23.4621,-29.81185 -28.59855,-49.89511 -4.74612,-18.55717 -4.92909,-27.33482 -0.96285,-46.19121 10.71332,-50.93354 56.17553,-85.97235 107.69886,-83.00607 90.81455,5.22834 132.69514,114.54771 68.23187,178.10324 -6.47632,6.38513 -11.79391,12.63858 -11.81687,13.89653 -0.023,1.25797 6.32791,6.07137 14.11307,10.69646 35.55213,21.12111 65.8968,62.80748 71.57705,98.32984 0.77867,4.86957 2.23047,7.82016 3.59089,7.29811 1.59267,-0.61121 2.28374,4.31561 2.28374,16.28139 0,12.33057 -0.66664,16.90201 -2.36946,16.24863 -1.30319,-0.50006 -3.45262,0.39593 -4.77651,1.99111 -1.32389,1.59519 -5.44624,2.90034 -9.16078,2.90034 -8.93706,0 -12.05279,-5.23072 -13.76199,-23.10387 -4.92741,-51.52571 -40.31816,-94.0298 -90.73106,-108.96749 -14.71024,-4.35874 -45.57359,-4.89112 -61.40656,-1.05923 -19.07774,4.61717 -39.33375,15.86339 -54.97561,30.52269 -23.55097,22.07159 -35.71468,46.68308 -39.32916,79.57685 -1.44647,13.16371 -2.88534,18.4541 -5.54877,20.40165 -4.89751,3.58114 -13.93708,3.31097 -17.77944,-0.53139 z M 870.35298,817.3848 c 15.10776,-5.58631 32.87099,-22.61722 41.16801,-39.47085 6.0364,-12.2617 6.57896,-14.94811 6.57896,-32.5751 0,-17.53755 -0.5604,-20.34963 -6.43219,-32.27694 -11.91014,-24.1929 -33.80201,-40.75908 -58.32064,-44.13284 -34.6418,-4.7667 -67.21063,12.32983 -82.36005,43.23375 -5.38592,10.98693 -5.9002,13.87874 -5.9002,33.17603 0,19.12971 0.54178,22.24375 5.69749,32.74756 18.13926,36.95529 60.59162,53.71067 99.56862,39.29839 z m -41.98391,-1.59699 c -21.40508,-3.62424 -42.38463,-19.85869 -52.01323,-40.24901 -4.48574,-9.49936 -5.22899,-13.79197 -5.22899,-30.19995 0,-15.81755 0.82664,-20.95534 4.77791,-29.69662 5.10841,-11.30108 8.30874,-13.53826 8.30874,-5.80817 0,6.74139 7.0181,14.82418 14.25081,16.41275 12.3871,2.72066 24.00246,-7.06562 24.00246,-20.22278 0,-6.9143 -10.08467,-17.05842 -16.95845,-17.05842 -8.49228,0 -5.97012,-3.12368 7.39513,-9.15882 17.63005,-7.96093 39.74247,-7.99813 57.0469,-0.096 47.7224,21.79265 57.81932,83.6314 19.33243,118.40197 -10.86519,9.81605 -21.04019,14.82898 -35.5397,17.50936 -12.99026,2.40139 -12.20021,2.39624 -25.37401,0.16571 z m 35.28872,-6.16455 c 15.51116,-5.80345 31.54676,-20.96459 39.70815,-37.54268 9.11259,-18.51033 9.16386,-34.87214 0.1665,-53.13777 -3.4851,-7.07515 -9.67426,-16.03489 -13.75369,-19.91055 -5.22584,-4.96482 -6.74771,-5.74743 -5.15127,-2.64902 4.08232,7.92302 2.76156,19.87093 -2.94642,26.6545 -4.70699,5.59392 -6.3173,6.18826 -16.60998,6.13044 -6.26872,-0.0352 -12.8352,-1.16772 -14.59214,-2.51666 -9.23556,-7.09082 -10.89275,-25.90419 -3.08169,-34.98507 4.21582,-4.90119 6.212,-5.57703 16.47264,-5.57703 l 11.67551,0 -8.92266,-3.98331 c -13.84598,-6.18118 -32.58752,-6.54873 -47.17594,-0.92518 -8.93892,3.44577 -10.91252,4.83656 -7.59012,5.34875 12.54874,1.93449 17.78211,27.66023 7.68162,37.76071 -10.13493,10.13494 -37.08053,4.53622 -37.48034,-7.78762 -0.24671,-7.60537 -8.13854,12.73478 -9.34302,24.08039 -1.43703,13.53628 3.85443,30.40305 13.61215,43.38935 19.5093,25.96445 49.71411,35.98345 77.33072,25.65075 z m 13.03086,-87.94104 c 12.92141,-11.99258 5.72448,-32.71661 -11.36163,-32.71661 -9.07112,0 -13.94152,2.81089 -17.80047,10.27327 -4.19297,8.10829 -2.20875,16.45401 5.44265,22.89225 7.9939,6.72642 16.15478,6.57197 23.71945,-0.44891 z m -21.28628,-5.63797 c -8.42665,-8.42665 -2.8697,-21.0802 9.22581,-21.00782 9.54139,0.0572 15.54658,8.27635 12.29516,16.82823 -3.80886,10.01805 -13.75155,11.94901 -21.52097,4.17959 z m -61.12222,1.10798 c -8.66308,-8.66308 -2.81361,-22.14663 9.60769,-22.14663 11.23035,0 16.62459,14.03431 8.51228,22.14663 -2.21466,2.21467 -6.29166,4.02666 -9.05999,4.02666 -2.76832,0 -6.84532,-1.81199 -9.05998,-4.02666 z m -291.2141,-96.51345 c -10.00695,-4.29215 -10.78541,-8.10371 -10.78541,-52.80867 0,-41.19924 0.0605,-41.79017 4.85902,-47.36863 4.34802,-5.05488 6.16598,-5.64891 17.28762,-5.64891 11.12163,0 12.93958,0.59403 17.28761,5.64891 4.80109,5.5816 4.85901,6.15022 4.85901,47.70433 0,41.02792 -0.11355,42.18741 -4.64845,47.45954 -3.63,4.2201 -6.82811,5.56408 -14.59664,6.13409 -5.47151,0.40146 -11.88974,-0.10288 -14.26276,-1.12066 z m 21.73068,-4.31511 c 7.83912,-4.19538 9.76385,-13.68865 9.76385,-48.15786 0,-42.40623 -3.17082,-50.33325 -20.1333,-50.33325 -16.96249,0 -20.13331,7.92702 -20.13331,50.33325 0,34.01583 1.88971,43.70216 9.37467,48.05309 4.833,2.80935 15.97133,2.86459 21.12809,0.10469 z m -15.93538,-3.95694 c -7.53777,-2.99723 -8.81988,-10.48873 -8.14846,-47.61247 0.69659,-38.51522 1.69915,-41.55281 13.71439,-41.55281 12.32501,0 13.08664,2.61686 13.08664,44.96436 0,31.25471 -0.5432,38.62674 -3.01999,40.98528 -4.28543,4.08086 -10.32982,5.32419 -15.63258,3.21564 z m -280.50141,3.55165 c -5.36148,-4.11643 -7.87884,-10.78423 -7.87884,-20.86884 l 0,-9.62092 55.04454,-55.14901 c 53.23809,-53.33913 55.33593,-55.17873 63.92323,-56.05449 12.64431,-1.28951 22.40711,4.07522 24.76297,13.60747 3.96354,16.03726 3.23713,17.02589 -55.73925,75.85933 l -54.94025,54.80714 -10.98895,-0.064 c -6.04394,-0.0352 -12.42649,-1.16773 -14.18345,-2.51666 z m 78.17251,-56.33608 c 54.63299,-54.73667 54.88174,-55.02476 54.88174,-63.5593 0,-11.83023 -6.62226,-18.45704 -18.44435,-18.45704 -8.50649,0 -8.89709,0.33488 -61.64553,52.84991 -29.19663,29.06745 -54.43489,55.40755 -56.08503,58.53352 -4.06973,7.70961 -1.89455,16.13312 5.84844,22.64841 12.50123,10.51909 14.19226,9.3532 75.44473,-52.0155 z m -73.24905,45.7288 c -3.98311,-3.98311 -4.84041,-6.35363 -3.82269,-10.56998 1.6072,-6.65857 102.62132,-108.69455 109.30352,-110.40926 11.13253,-2.8567 20.40837,6.35499 16.512,16.39782 -0.85701,2.20892 -25.46036,27.7987 -54.67413,56.86615 -37.94534,37.7553 -54.41091,52.8499 -57.64998,52.8499 -2.49376,0 -6.84466,-2.31059 -9.66872,-5.13463 z m 487.09855,-41.61918 c -58.97637,-58.83344 -59.70277,-59.82207 -55.73924,-75.85933 2.35586,-9.53225 12.11866,-14.89698 24.76298,-13.60747 8.5873,0.87576 10.68512,2.71536 63.92323,56.05449 l 55.04453,55.14901 0,9.62092 c 0,17.1606 -5.78316,23.29063 -22.06229,23.38549 l -10.98895,0.064 -54.94026,-54.80713 z m 77.62237,47.70607 c 7.52215,-6.32948 9.64227,-14.81175 5.61095,-22.4486 -1.65015,-3.12597 -26.88841,-29.46607 -56.08503,-58.53352 -52.11204,-51.88146 -53.23591,-52.84991 -61.33097,-52.84991 -14.37811,0 -23.25794,12.69676 -17.71307,25.32688 2.69508,6.13883 106.4275,110.34114 111.70063,112.20661 6.53002,2.31011 12.03133,1.16725 17.81749,-3.70146 z m -69.74527,-53.80216 c -29.21014,-29.06745 -53.91688,-54.892 -54.90389,-57.38788 -3.87212,-9.79166 5.56343,-18.74286 16.73516,-15.87609 6.6822,1.71471 107.69632,103.75069 109.30353,110.40926 1.01772,4.21635 0.16045,6.58687 -3.82269,10.56998 -2.82406,2.82404 -7.17497,5.13463 -9.66872,5.13463 -3.23925,0 -19.7008,-15.09264 -57.64339,-52.8499 z M 480.20067,481.80839 c -10.72386,-3.4553 -22.88207,-10.91209 -30.94301,-18.97779 -15.35867,-15.36769 -21.36926,-34.45973 -21.39192,-67.9491 -0.0181,-27.86389 -7.85301,-47.81675 -27.61346,-70.32864 -19.80408,-22.56162 -28.96765,-38.47564 -37.13881,-64.49751 -4.10438,-13.0708 -4.7175,-19.09505 -4.70566,-46.23562 0.0161,-35.44179 2.50066,-48.02522 14.21869,-71.99374 14.15742,-28.95807 39.49505,-54.899655 67.36054,-68.966107 23.4829,-11.854125 34.97857,-14.499158 67.39358,-15.506528 37.2839,-1.158691 53.01216,1.715338 78.51987,14.347997 39.21119,19.419276 66.86893,51.898908 79.87329,93.798458 4.08211,13.1524 4.68657,19.2548 4.68657,47.31325 0,28.17252 -0.59198,34.09848 -4.71926,47.24229 -8.17117,26.02187 -17.33474,41.93589 -37.13882,64.49751 -19.76044,22.51189 -27.59464,42.46475 -27.61347,70.32864 -0.0292,43.30752 -11.69593,66.88996 -40.5821,82.03071 -10.32533,5.41205 -12.00764,5.64996 -42.95943,6.07528 -17.7173,0.24345 -34.47828,-0.28714 -37.2466,-1.1791 z m 74.97526,-6.89677 c 14.82541,-7.2801 29.02995,-21.5327 35.47409,-35.5942 4.01037,-8.75086 5.39405,-15.94191 6.58668,-34.23136 0.83038,-12.73432 2.08356,-27.92122 2.78482,-33.74871 1.66364,-13.82467 12.36007,-34.917 24.74657,-48.79783 22.91442,-25.67883 35.4521,-49.5293 41.49624,-78.93829 C 682.19758,166.07481 635.51236,88.3204 558.72054,64.486544 545.70502,60.446938 539.45162,59.806115 513.42061,59.844509 484.8004,59.88679 482.29797,60.216855 465.58145,66.155775 404.0865,88.003207 363.702,141.03964 360.01382,204.79635 c -2.46794,42.66245 10.90882,79.55659 41.59534,114.72318 17.90469,20.51865 25.77944,37.64841 28.22944,61.40657 1.08481,10.51965 1.98807,24.30214 2.00726,30.62778 0.0868,28.62834 20.56694,56.29744 49.19881,66.46874 8.24721,2.92978 15.30085,3.53018 36.4026,3.09862 24.05277,-0.49192 27.10949,-0.99502 37.72866,-6.20962 z m -75.8293,-4.35789 c -15.38861,-6.32625 -29.43188,-20.11832 -36.48313,-35.83057 -4.72744,-10.53416 -5.61769,-15.84625 -6.95417,-41.49554 -2.03986,-39.14904 -6.32585,-50.28931 -29.7861,-77.42091 -29.34968,-33.94266 -42.14784,-68.81977 -40.00988,-109.03364 1.30973,-24.63567 5.10025,-39.39408 15.513,-60.39989 17.28362,-34.86647 48.16482,-61.445635 87.08879,-74.956493 21.15195,-7.34203 58.27882,-8.658386 81.27785,-2.88178 50.32486,12.639993 90.1904,50.136443 107.01567,100.656033 4.45545,13.37794 5.1579,19.05861 5.26954,42.61546 0.10953,23.12752 -0.57479,29.42073 -4.59043,42.20897 -8.09621,25.78315 -17.86114,42.71101 -36.78296,63.76449 -20.60754,22.92909 -26.09765,37.71987 -28.00512,75.44776 -1.30808,25.87269 -2.15221,30.89679 -7.00983,41.72099 -7.17899,15.99693 -22.23393,30.41482 -37.86568,36.26342 -17.40817,6.51322 -52.04029,6.18126 -68.67755,-0.6583 z m 55.85979,-23.33293 c 15.34624,-4.26141 31.11885,-24.95943 29.2249,-38.35113 l -0.67746,-4.79028 -49.32658,0 -49.32659,0 -0.67747,4.79028 c -1.81499,12.83359 12.18796,32.23579 27.10196,37.55187 9.35474,3.33449 32.99369,3.76702 43.68124,0.79926 z m -43.93244,-7.68672 c -9.31695,-4.30005 -15.93879,-10.91606 -18.99253,-18.97576 -4.49826,-11.87223 -6.0693,-11.44558 42.14583,-11.44558 48.21512,0 46.64408,-0.42665 42.14582,11.44558 -3.05374,8.0597 -9.67558,14.67571 -18.99253,18.97576 -11.0249,5.0883 -35.28169,5.0883 -46.30659,0 z m 37.68742,-0.31 c 11.82837,-3.28505 25.73247,-17.32543 25.73247,-25.9847 0,-1.40508 -13.4944,-2.11331 -40.26659,-2.11331 -26.7722,0 -40.26661,0.70823 -40.26661,2.11331 0,3.73346 5.50908,12.84812 10.69113,17.68827 9.90051,9.24731 28.25533,12.6996 44.1096,8.29643 z m -29.09477,-115.55249 0.53934,-50.20787 -27.21596,-27.46661 c -17.24136,-17.40018 -27.21595,-28.98604 -27.21595,-31.61231 0,-6.92802 6.67537,-13.31615 13.91488,-13.31615 5.57641,0 9.66004,3.16197 29.0352,22.48216 12.40038,12.36522 23.87679,22.4822 25.50314,22.4822 1.62635,0 13.10274,-10.11698 25.50313,-22.4822 19.37515,-19.32019 23.45879,-22.48216 29.03519,-22.48216 7.23952,0 13.91489,6.38813 13.91489,13.31615 0,2.62627 -9.9746,14.21213 -27.21595,31.61231 l -27.21595,27.46661 0.53932,50.20787 0.53934,50.20785 17.5183,0.58028 17.51833,0.58028 2.22173,-8.6336 c 7.93637,-30.84057 15.97652,-46.10219 36.89865,-70.04017 22.05659,-25.23598 31.66207,-50.23687 31.75204,-82.6435 0.0632,-22.78854 -2.39777,-34.2686 -11.41689,-53.25625 -11.71343,-24.65989 -30.91891,-43.95184 -56.23888,-56.49211 -34.29574,-16.985684 -72.4574,-16.841241 -107.71316,0.40769 -11.25722,5.50759 -19.24448,11.53457 -31.38561,23.68273 -25.44788,25.4626 -34.98752,48.56352 -35.03039,84.8286 -0.0396,33.52625 9.16064,57.89166 31.51892,83.47284 20.92212,23.93798 28.96228,39.1996 36.89865,70.04017 l 2.22173,8.6336 17.51832,-0.58028 17.51831,-0.58028 0.53933,-50.20785 z m -34.65981,31.62546 c -4.62566,-18.41478 -16.85023,-41.16473 -30.54977,-56.85314 -22.54461,-25.81755 -31.08441,-42.99577 -34.96029,-70.3243 -5.11327,-36.05333 6.78323,-69.99632 33.9715,-96.92707 46.15646,-45.71929 115.36158,-45.71929 161.51803,0 27.18827,26.93075 39.08477,60.87374 33.9715,96.92707 -3.87588,27.32853 -12.41568,44.50675 -34.96029,70.3243 -13.69954,15.68841 -25.92411,38.43836 -30.54976,56.85314 l -3.40341,13.54906 -12.84187,0 -12.84188,0 0,-46.78291 0,-46.78295 26.63086,-26.68576 c 25.17266,-25.22457 26.63088,-27.12153 26.63088,-34.64346 0,-13.6573 -14.29088,-23.85367 -25.46037,-18.16567 -2.55645,1.30186 -14.38756,11.9922 -26.29138,23.75633 l -21.64329,21.38932 -21.6433,-21.38932 c -11.90382,-11.76413 -23.73493,-22.45447 -26.29138,-23.75633 -11.16949,-5.688 -25.46037,4.50837 -25.46037,18.16567 0,7.52193 1.45822,9.41889 26.63088,34.64346 l 26.63086,26.68576 0,46.78295 0,46.78291 -12.84188,0 -12.84187,0 -3.4034,-13.54906 z m 27.07382,-32.16513 0,-43.70086 -27.17995,-27.4303 -27.17996,-27.43031 0,-10.56356 c 0,-8.99108 0.87607,-11.43961 5.88513,-16.44867 5.00321,-5.00323 7.46192,-5.88512 16.40751,-5.88512 l 10.52241,0 21.84574,21.52731 21.84576,21.52728 21.84575,-21.52728 21.84575,-21.52731 10.5224,0 c 8.94559,0 11.4043,0.88189 16.40751,5.88512 5.00906,5.00906 5.88512,7.45759 5.88512,16.44867 l 0,10.56356 -27.17995,27.43031 -27.17996,27.4303 0,43.70086 0,43.70086 10.56999,-0.0141 10.56998,-0.0141 3.48121,-14.58245 c 4.92901,-20.64714 15.50956,-40.28348 31.74127,-58.90833 23.53063,-26.99988 34.25659,-51.87804 34.2135,-79.35596 -0.0479,-30.53972 -10.91107,-55.70796 -34.0294,-78.84051 -18.32576,-18.33709 -37.2681,-28.53121 -62.10954,-33.42525 -15.29858,-3.013976 -17.86868,-3.013976 -33.16728,0 -43.22677,8.51615 -78.19296,39.34431 -91.15105,80.36396 -12.17123,38.52877 -2.68468,74.64278 29.22561,111.25776 16.23172,18.62485 26.81227,38.26119 31.74129,58.90833 l 3.4812,14.58245 10.56998,0.0141 10.56998,0.0141 0,-43.70086 z"
     id="path3351"
     inkscape:connector-curvature="0" />
</svg>
