<?xml version="1.0" encoding="UTF-8" standalone="no"?>
<svg
   xmlns:dc="http://purl.org/dc/elements/1.1/"
   xmlns:cc="http://creativecommons.org/ns#"
   xmlns:rdf="http://www.w3.org/1999/02/22-rdf-syntax-ns#"
   xmlns:svg="http://www.w3.org/2000/svg"
   xmlns="http://www.w3.org/2000/svg"
   version="1.1"
   id="svg2"
   viewBox="0 0 1055.9055 1055.9055"
   height="298mm"
   width="298mm">
  <defs
     id="defs4" />
  <metadata
     id="metadata7">
    <rdf:RDF>
      <cc:Work
         rdf:about="">
        <dc:format>image/svg+xml</dc:format>
        <dc:type
           rdf:resource="http://purl.org/dc/dcmitype/StillImage" />
        <dc:title></dc:title>
      </cc:Work>
    </rdf:RDF>
  </metadata>
  <g
     transform="translate(-354.21191,-245.16207)"
     id="layer1">
    <path
       id="path3347"
       d="m 947.19308,1207.274 c 0.0369,-19.4508 0.58801,-49.309 1.22479,-66.3516 1.03397,-27.6731 1.52734,-32.139 4.61385,-41.7645 10.75448,-33.5382 39.107,-58.2275 80.12048,-69.7689 9.9868,-2.8103 13.0397,-2.9133 99.8932,-3.3693 89.9341,-0.4722 120.0699,0.4794 134.0505,4.233 19.5468,5.2482 41.857,18.0829 56.1347,32.2934 8.6398,8.5991 11.6841,12.8194 16.5217,22.9031 3.2617,6.7988 6.65,15.6959 7.5298,19.7713 1.7218,7.9768 3.7863,65.8516 3.9287,110.1369 l 0.087,27.2817 -202.0863,0 -202.0862,0 0.0669,-35.3651 z m 367.35642,-41.0908 c -0.8818,-53.1605 -2.7702,-60.3606 -20.4049,-77.8032 -10.4742,-10.3603 -20.0789,-16.0639 -36.4794,-21.6633 -10.7436,-3.6679 -10.9514,-3.6836 -65.3412,-4.911 -30.0098,-0.6773 -72.751,-0.9586 -94.9805,-0.6251 -35.7699,0.5367 -41.6475,0.936 -51.1171,3.4727 -29.6458,7.9421 -50.79978,26.3437 -58.91283,51.248 -2.61953,8.0409 -2.94029,12.5973 -3.49234,49.6083 l -0.60786,40.7541 166.00053,0 166.0005,0 -0.6649,-40.0805 z m -488.17083,-217.38458 -59.10936,-47.29535 -6.85394,0.80154 c -46.41857,5.42845 -85.92994,3.34453 -124.50211,-6.56653 -59.80269,-15.3662 -106.0718,-43.91978 -148.90227,-91.8905 -39.02353,-43.70691 -63.41239,-96.83741 -72.23539,-157.363 -2.33172,-15.99559 -2.32364,-67.61678 0.0135,-83.52898 9.10392,-61.99426 31.68896,-111.62973 71.72331,-157.62726 25.13023,-28.87341 59.38645,-55.38676 92.34867,-71.47529 50.28437,-24.5433 102.40833,-33.86621 162.29617,-29.02838 118.53674,9.57561 219.19694,89.05688 256.95807,202.89403 11.33758,34.17892 15.36578,59.68616 15.31888,97.0014 -0.072,57.48418 -13.3629,106.81616 -41.5594,154.25915 -17.09128,28.75759 -50.06175,66.21601 -75.10508,85.32844 -1.77853,1.35731 -2.18281,11.68716 -3.00093,76.67737 l -0.9455,75.10867 -3.6674,0 c -2.79957,0 -17.65497,-11.19187 -62.77678,-47.29531 z m 31.81409,-80.6926 0.18433,-43.78535 10.28743,-7.40983 c 12.87374,-9.27269 37.08474,-32.44063 47.847,-45.78565 20.75873,-25.74046 38.51109,-57.92798 48.05818,-87.13621 8.71578,-26.66491 10.96399,-39.61485 11.8005,-67.97269 1.48433,-50.31779 -5.1825,-82.70053 -25.90165,-125.81153 -39.43683,-82.05752 -123.33874,-141.08002 -211.4913,-148.77788 -43.13464,-3.76668 -78.46516,0.62965 -115.18915,14.33351 -65.54264,24.45778 -118.88524,72.76757 -148.25776,134.26982 -19.38971,40.59957 -30.09494,91.13119 -26.95845,127.2513 7.66261,88.24341 48.86914,159.52891 119.4898,206.71212 57.05312,38.11844 122.60673,52.67559 186.87951,41.49936 25.43261,-4.42241 19.74715,-6.90508 63.09388,27.55129 l 38.15218,30.32721 0.91057,-5.74006 c 0.50081,-3.15703 0.99353,-25.44346 1.09493,-49.52541 z M 534.19653,642.64527 c -12.49352,-4.05818 -22.75349,-13.45779 -28.82948,-26.41195 -3.16453,-6.74681 -3.50432,-9.03898 -3.50432,-23.6382 0,-14.45441 0.35125,-16.88044 3.31608,-22.90311 4.26269,-8.65908 15.0393,-19.41364 23.62875,-23.58037 5.33614,-2.58858 9.43135,-3.37294 19.7036,-3.7739 22.64551,-0.88393 37.45624,5.30789 46.93828,19.62314 6.54358,9.87902 8.49883,18.58441 7.90081,35.17723 -0.46036,12.77351 -0.9428,15.09585 -4.47136,21.52391 -4.62997,8.43453 -13.71549,17.01691 -23.03586,21.76018 -5.7091,2.90544 -8.65397,3.40968 -21.43788,3.6708 -9.3051,0.19009 -16.82496,-0.34864 -20.20862,-1.44773 z m 27.85906,-38.10246 c 1.55417,-1.38434 3.65959,-4.48735 4.67877,-6.89554 1.5756,-3.7231 1.57221,-5.05052 -0.0226,-8.86768 -3.80295,-9.10172 -12.6688,-12.65075 -20.93042,-8.37851 -9.48736,4.9061 -10.83588,16.88179 -2.71783,24.13587 3.73344,3.33609 5.11984,3.76797 10.24217,3.19061 3.25835,-0.36725 7.19585,-1.80039 8.75001,-3.18475 z m 130.8027,37.2869 c -8.5185,-3.06591 -13.1576,-6.25162 -19.78302,-13.58515 -9.0179,-9.98175 -10.8305,-15.81805 -10.8626,-34.97581 -0.0263,-15.77592 0.20476,-17.28234 3.65681,-23.8295 4.43,-8.40185 15.23273,-19.52101 22.99808,-23.67168 5.05284,-2.70082 7.57507,-3.02038 23.83848,-3.02038 16.57309,0 18.78267,0.29273 24.88883,3.29751 9.00162,4.42959 17.66936,13.37748 21.99796,22.70897 3.01245,6.49413 3.6363,9.95395 4.056,22.49421 0.42929,12.8266 0.0892,15.90677 -2.52807,22.9031 -4.0664,10.86969 -16.5949,23.41049 -27.44192,27.46888 -10.18096,3.80918 -30.52935,3.91378 -40.82055,0.20985 z m 30.58211,-38.41492 c 6.97518,-6.68263 6.11029,-15.66884 -2.13207,-22.15225 -8.73673,-6.87232 -23.42195,0.65539 -23.42195,12.00621 0,3.94421 3.44921,10.19753 7.06532,12.80923 4.49961,3.24977 13.70019,1.92449 18.4887,-2.66319 z m 131.16275,39.17987 c -12.01688,-3.90715 -22.76841,-13.52559 -28.78261,-25.74919 -2.9849,-6.06668 -3.31432,-8.41002 -3.31432,-23.57672 0,-15.71733 0.24394,-17.30303 3.65737,-23.77492 4.58249,-8.68844 14.93185,-19.4199 22.72377,-23.56274 5.36464,-2.85228 7.68273,-3.16585 23.4668,-3.17441 16.13956,-0.008 18.11133,0.27048 25.1233,3.55795 9.71289,4.55375 17.98188,12.83648 22.46705,22.50443 2.97878,6.42082 3.60753,9.92359 4.02607,22.42882 0.42449,12.68388 0.0763,15.93544 -2.41541,22.56179 -3.81583,10.14728 -13.66804,20.87575 -23.82328,25.94221 -7.03234,3.50844 -9.43015,3.96272 -22.68325,4.29755 -9.78146,0.24713 -16.73225,-0.24744 -20.44549,-1.45477 z m 22.52967,-34.50626 c 2.6299,0 10.5791,-8.44117 11.37903,-12.0833 1.63925,-7.46338 -6.63068,-17.55601 -14.38543,-17.55601 -5.57486,0 -11.48957,3.42713 -13.87463,8.03935 -2.58367,4.99628 -2.58323,8.56516 0.002,13.56377 2.18769,4.23052 10.92843,9.67407 13.89497,8.65349 0.98711,-0.33953 2.3301,-0.6173 2.9847,-0.6173 z m 243.01708,376.58051 c -33.8504,-7.36652 -68.5423,-37.10983 -80.5435,-69.05439 -6.7224,-17.89372 -8.0721,-25.5032 -8.0687,-45.48764 0,-15.01385 0.6051,-21.19738 2.9534,-30.31294 8.6011,-33.38619 31.5157,-61.90927 61.5051,-76.55865 17.1178,-8.36176 24.2867,-9.97771 47.3309,-10.66887 24.6214,-0.73847 37.7067,1.14405 53.2637,7.6628 18.5059,7.7544 38.4124,24.09824 49.9474,41.00825 7.6219,11.17357 15.655,28.92515 17.9147,39.58835 2.541,11.9904 2.541,45.22448 0,57.21489 -2.2882,10.79767 -10.2969,28.40636 -18.2386,40.10083 -15.8881,23.39636 -44.0454,42.14313 -70.6414,47.03222 -10.8489,1.99431 -45.3483,1.66759 -55.423,-0.52485 z m 45.7554,-35.69067 c 24.2399,-6.19951 45.2113,-22.91784 55.874,-44.5423 6.9114,-14.01684 10.1681,-28.44873 9.0271,-40.00425 -3.4534,-34.97479 -30.1436,-65.61394 -64.9011,-74.50339 -12.3365,-3.15515 -18.2219,-3.2767 -30.839,-0.63678 -31.2414,6.5367 -57.2842,31.81855 -65.379,63.46872 -3.3453,13.08007 -3.3453,20.30597 0,33.38605 7.8314,30.62038 31.8118,54.7809 62.3012,62.7691 12.691,3.32504 21.1008,3.34064 33.9168,0.0628 z"
       style="fill:#3b3b3b;fill-opacity:1" />
  </g>
</svg>
