<?xml version="1.0" encoding="UTF-8" standalone="no"?>
<!-- Generator: Adobe Illustrator 16.0.0, SVG Export Plug-In . SVG Version: 6.00 Build 0)  -->

<svg
   xmlns:dc="http://purl.org/dc/elements/1.1/"
   xmlns:cc="http://creativecommons.org/ns#"
   xmlns:rdf="http://www.w3.org/1999/02/22-rdf-syntax-ns#"
   xmlns:svg="http://www.w3.org/2000/svg"
   xmlns="http://www.w3.org/2000/svg"
   xmlns:sodipodi="http://sodipodi.sourceforge.net/DTD/sodipodi-0.dtd"
   xmlns:inkscape="http://www.inkscape.org/namespaces/inkscape"
   version="1.1"
   id="Capa_1"
   x="0px"
   y="0px"
   width="468.934px"
   height="468.934px"
   viewBox="0 0 468.934 468.934"
   style="enable-background:new 0 0 468.934 468.934;"
   xml:space="preserve"
   inkscape:version="0.91 r13725"
   sodipodi:docname="foryou.svg"><metadata
     id="metadata42"><rdf:RDF><cc:Work
         rdf:about=""><dc:format>image/svg+xml</dc:format><dc:type
           rdf:resource="http://purl.org/dc/dcmitype/StillImage" /></cc:Work></rdf:RDF></metadata><defs
     id="defs40" /><sodipodi:namedview
     pagecolor="#ffffff"
     bordercolor="#666666"
     borderopacity="1"
     objecttolerance="10"
     gridtolerance="10"
     guidetolerance="10"
     inkscape:pageopacity="0"
     inkscape:pageshadow="2"
     inkscape:window-width="1366"
     inkscape:window-height="747"
     id="namedview38"
     showgrid="false"
     inkscape:zoom="1.2031278"
     inkscape:cx="367.4537"
     inkscape:cy="234.467"
     inkscape:window-x="0"
     inkscape:window-y="21"
     inkscape:window-maximized="1"
     inkscape:current-layer="Capa_1" /><g
     id="g3"
     style="fill:#3b3b3b;fill-opacity:1"
     transform="translate(-3.3246677,-1.6623339)"><g
       id="icons"
       style="fill:#3b3b3b;fill-opacity:1"><path
         d="M 468.934,164.016 C 468.934,89.619 408.622,29.31 334.229,29.31 294.68,29.31 259.112,46.352 234.465,73.497 209.825,46.351 174.257,29.31 134.707,29.31 60.312,29.31 0,89.619 0,164.016 c 0,39.548 17.044,75.114 44.188,99.758 l 146.317,146.544 c 14.653,14.655 29.31,29.307 43.96,29.307 14.656,0 29.312,-14.651 43.964,-29.307 L 424.745,263.774 c 27.145,-24.644 44.189,-60.211 44.189,-99.758 z M 207.812,343.853 c -5.292,5.05 -13.557,8.312 -21.057,8.312 0,0 -0.001,0 -0.002,0 -5.627,0 -10.207,-1.83 -13.242,-5.289 -4.528,-5.113 -4.591,-10.127 -3.32,-14.49 0.943,-3.238 -1.205,-3.453 -2.625,-3.223 -1.285,0.209 -2.591,0.336 -3.894,0.336 -4.801,0 -8.675,-1.746 -11.517,-5.191 -4.046,-4.936 -3.919,-9.51 -2.846,-13.553 0.825,-3.107 -1.566,-2.691 -3.008,-2.438 -1.147,0.202 -2.321,0.33 -3.509,0.33 -4.416,0 -8.086,-1.812 -10.91,-5.391 -4.228,-5.346 -3.757,-9.907 -2.828,-13.95 0.496,-2.158 -1.112,-2.345 -2.262,-2.109 -1.286,0.265 -2.617,0.437 -3.977,0.437 -4.351,0 -7.982,-1.733 -11.102,-5.299 -7.814,-8.959 -3.009,-23.756 5.923,-32.326 4.386,-4.182 10.013,-6.48 15.851,-6.48 5.498,0 10.553,2.078 14.23,5.852 3.159,3.246 4.874,7.572 5.116,12.262 0.134,2.591 0.967,3.257 2.538,3.227 4.902,-0.1 9.363,2.207 12.62,5.521 3.213,3.314 4.9,7.73 5.124,12.503 0.073,1.563 -0.315,3.006 2.087,2.994 5.086,-0.026 9.723,2.131 13.059,5.547 3.655,3.758 4.94,8.821 5.264,14.131 0.107,1.761 0.403,2.49 2.126,2.735 5.345,0.763 10.336,2.013 13.9,5.666 3.583,3.697 5.498,8.664 5.396,13.99 -0.11,5.87 -2.711,11.663 -7.135,15.896 z m 125.229,-59.705 c -3.096,3.081 -8.362,5.665 -12.742,5.665 -2,0 -3.764,-1.082 -5.667,-1.875 -2,-0.833 -2.958,0.625 -2.292,1.958 2.889,5.78 2.034,12.344 -2.676,17.054 -3.043,3.043 -7.102,4.721 -11.424,4.721 -3.026,0 -5.926,-0.898 -8.525,-2.373 -1.958,-1.109 -2.967,0.425 -2.625,2.016 1.135,5.268 -0.022,10.28 -4.088,14.343 -3.094,3.082 -7.207,4.777 -11.584,4.777 -2.938,0 -5.754,-0.765 -8.221,-2.196 -1.209,-0.703 -3.381,0.372 -3.381,2.739 -0.002,4.19 -1.592,8.383 -4.769,11.573 -3.099,3.091 -7.212,4.789 -11.593,4.789 -4.383,0 -8.495,-1.698 -11.578,-4.784 -2.319,-2.339 -6.04,-6.435 -7.139,-7.683 -0.095,-0.084 -0.183,-0.174 -0.266,-0.271 -0.502,-0.59 -0.723,-1.37 -0.6,-2.136 1.507,-9.426 -1.242,-18.545 -7.543,-25.018 -3.359,-3.433 -7.577,-5.961 -12.192,-7.305 -0.92,-0.27 -1.624,-1.014 -1.839,-1.947 -1.146,-4.974 -3.643,-9.554 -7.222,-13.242 -3.201,-3.289 -7.239,-5.756 -11.678,-7.129 -0.873,-0.27 -1.544,-0.971 -1.777,-1.854 -1.209,-4.594 -3.501,-8.65 -6.811,-12.057 -3.182,-3.279 -7.221,-5.74 -11.678,-7.115 -0.875,-0.271 -1.55,-0.977 -1.78,-1.863 -1.185,-4.557 -3.475,-8.622 -6.806,-12.083 -5.187,-5.342 -12.858,-8.41 -21.04,-8.41 -8.411,0 -16.612,3.218 -22.503,8.828 -3.617,3.517 -6.342,7.822 -8.08,12.78 -0.241,0.685 -0.75,1.24 -1.412,1.537 -0.661,0.298 -1.416,0.312 -2.086,0.037 -7.759,-3.168 -16.527,-5.719 -16.614,-5.744 -1.132,-0.328 -1.91,-1.364 -1.91,-2.543 l 0,-108.214 c 0,-0.857 0.415,-1.661 1.113,-2.157 0.699,-0.497 1.594,-0.624 2.404,-0.342 l 31.133,10.842 c 0.042,0.015 0.082,0.029 0.122,0.046 4.159,1.683 8.353,2.537 12.464,2.536 7.675,0 12.562,-3.008 12.61,-3.039 1.625,-1.064 40.798,-26.579 60.479,-26.579 20.175,0 29.543,11.577 29.932,12.069 0.486,0.616 0.674,1.416 0.513,2.183 -0.162,0.768 -0.656,1.425 -1.348,1.793 -0.285,0.152 -28.663,15.27 -40.842,23.698 -0.035,0.024 -0.07,0.047 -0.105,0.069 -8.481,5.293 -13.544,14.338 -13.544,24.195 0,15.65 12.839,28.467 28.621,28.57 2.813,0 8.945,-1.52 17.117,-5.806 0.033,-0.018 0.067,-0.035 0.102,-0.051 6.243,-2.938 20.422,-10.656 29.708,-14.67 9.28,-4.012 14.297,-3.574 20.047,2.176 2.718,2.718 62.724,63.844 62.869,63.991 6.362,6.414 5.107,17.141 -1.254,23.501 z m 65.579,-37.915 c 0,1.266 -0.896,2.354 -2.136,2.598 -0.829,0.164 -36.25,7.785 -40.07,7.785 -6.959,0 -12.772,-2.195 -17.277,-6.525 -14.449,-13.848 -65.986,-65.093 -66.504,-65.61 -0.126,-0.118 -3.754,-3.508 -10.016,-3.508 -3.266,0 -6.692,0.936 -10.187,2.781 -14.903,7.855 -29.444,15.643 -37.058,19.342 -3.535,1.884 -7.233,2.861 -10.907,2.862 -5.646,0 -11.025,-2.333 -15.149,-6.572 -3.734,-3.839 -5.964,-8.854 -5.964,-13.413 0,-7.822 4.381,-14.24 13.025,-19.076 18.886,-11.451 58.45,-33.626 74.228,-42.009 5.115,-2.721 8.979,-3.882 12.918,-3.882 6.184,0 12.582,3.068 20.748,9.947 16.608,13.969 31.607,26.886 31.757,27.014 0.063,0.049 2.763,2.176 7.265,2.177 1.018,0 2.063,-0.111 3.109,-0.332 18.853,-3.986 48.693,-10.666 48.992,-10.733 0.785,-0.176 1.607,0.014 2.233,0.517 0.627,0.502 0.993,1.262 0.993,2.066 l 0,94.571 0,0 z"
         id="path6"
         style="fill:#3b3b3b;fill-opacity:1"
         inkscape:connector-curvature="0" /></g></g><g
     id="g8" /><g
     id="g10" /><g
     id="g12" /><g
     id="g14" /><g
     id="g16" /><g
     id="g18" /><g
     id="g20" /><g
     id="g22" /><g
     id="g24" /><g
     id="g26" /><g
     id="g28" /><g
     id="g30" /><g
     id="g32" /><g
     id="g34" /><g
     id="g36" /></svg>