<?xml version="1.0" encoding="UTF-8" standalone="no"?>
<svg
   xmlns:dc="http://purl.org/dc/elements/1.1/"
   xmlns:cc="http://creativecommons.org/ns#"
   xmlns:rdf="http://www.w3.org/1999/02/22-rdf-syntax-ns#"
   xmlns:svg="http://www.w3.org/2000/svg"
   xmlns="http://www.w3.org/2000/svg"
   version="1.1"
   id="svg2"
   viewBox="0 0 1055.9055 1055.9055"
   height="298mm"
   width="298mm">
  <defs
     id="defs4" />
  <metadata
     id="metadata7">
    <rdf:RDF>
      <cc:Work
         rdf:about="">
        <dc:format>image/svg+xml</dc:format>
        <dc:type
           rdf:resource="http://purl.org/dc/dcmitype/StillImage" />
        <dc:title></dc:title>
      </cc:Work>
    </rdf:RDF>
  </metadata>
  <g
     style="display:inline"
     transform="translate(-354.21191,-245.16207)"
     id="layer1">
    <path
       id="path4210"
       d="m 419.9516,1169.2508 c 0,-3.304 -1.67199,-7.679 -3.71541,-9.7225 -3.75378,-3.7537 -2.84103,-17.4526 2.84304,-42.6729 2.08347,-9.2442 35.07588,-59.5312 107.28676,-163.5271 57.35294,-82.59785 107.3485,-152.80602 111.10061,-156.01816 4.49032,-3.84379 12.42706,-5.84025 23.21751,-5.84025 15.98326,0 17.11026,0.68664 44.86481,27.33221 l 28.47005,27.33222 108.28061,-108.24217 108.28061,-108.24216 0,-24.21459 0,-24.21457 -117.9564,0 c -110.03602,0 -118.32751,-0.40982 -123.47962,-6.10304 -4.86376,-5.3743 -5.5232,-17.30626 -5.5232,-99.92938 0,-93.17424 0.0533,-93.86242 7.41712,-99.0215 6.42494,-4.50023 26.01749,-5.19515 146.47085,-5.19515 131.90792,0 139.45857,0.32772 146.93236,6.37581 l 7.8787,6.37586 1.6686,127.94994 1.6687,127.94997 163.236,231.94143 c 115.8263,164.57673 164.1268,235.81853 166.3021,245.29063 5.7201,24.9092 6.6709,38.9019 2.9001,42.6729 -2.0434,2.0435 -3.7154,6.4185 -3.7154,9.7225 0,5.7557 -19.3439,6.0071 -462.21428,6.0071 -442.87031,0 -462.21422,-0.2513 -462.21422,-6.0071 z m 835.7932,-66.5789 c -7.1078,-10.9247 -271.18536,-387.66345 -276.19296,-394.02252 -2.66181,-3.38011 -29.32307,21.46012 -115.51851,107.6275 l -112.05807,112.02177 -18.26298,0 -18.2633,0 -25.37006,-25.22131 c -19.66796,-19.55276 -26.14897,-24.24065 -28.83582,-20.85805 -8.14097,10.24891 -157.85933,226.46191 -157.85933,227.96951 0,0.9134 170.62445,1.6606 379.16583,1.6606 l 379.1659,0 -5.9707,-9.1775 z m -305.16461,-626.57561 0,-41.71608 -93.44403,0 -93.44403,0 0,41.71608 0,41.71609 93.44403,0 93.44403,0 0,-41.71609 z"
       style="fill:#3b3b3b;fill-opacity:1" />
  </g>
</svg>
