<?xml version="1.0" encoding="UTF-8" standalone="no"?>
<svg
   xmlns:dc="http://purl.org/dc/elements/1.1/"
   xmlns:cc="http://creativecommons.org/ns#"
   xmlns:rdf="http://www.w3.org/1999/02/22-rdf-syntax-ns#"
   xmlns:svg="http://www.w3.org/2000/svg"
   xmlns="http://www.w3.org/2000/svg"
   width="298mm"
   height="298mm"
   viewBox="0 0 1055.9055 1055.9055"
   id="svg2"
   version="1.1">
  <defs
     id="defs4" />
  <metadata
     id="metadata7">
    <rdf:RDF>
      <cc:Work
         rdf:about="">
        <dc:format>image/svg+xml</dc:format>
        <dc:type
           rdf:resource="http://purl.org/dc/dcmitype/StillImage" />
        <dc:title></dc:title>
      </cc:Work>
    </rdf:RDF>
  </metadata>
  <path
     id="path3347"
     d="m 235.53299,986.27636 c 0.0211,-2.41092 0.4716,-2.69155 1.56265,-0.97337 1.21288,1.91006 71.43964,2.51754 336.30701,2.90913 l 334.77398,0.49496 -336.33662,0.4784 c -319.22208,0.45408 -336.33517,0.30605 -336.30702,-2.90912 z m 5.7776,-2.27066 c 0,-0.98269 21.34167,-77.68775 47.4259,-170.45569 26.08425,-92.76795 47.42591,-168.96494 47.42591,-169.32665 0,-0.3617 4.13766,0.40639 9.19481,1.70686 7.33661,1.88664 9.08558,3.1175 8.65438,6.09063 -0.29727,2.04936 -16.96603,62.089 -37.04171,133.4214 -26.39117,93.77226 -36.0076,130.63357 -34.71891,133.08284 1.64246,3.12169 6.7905,3.38756 65.59402,3.38756 l 63.81166,0 0,9.67875 0,9.67875 -67.61299,0 c -57.11715,0 -68.05781,0.44479 -70.47829,2.86527 -3.51089,3.51091 -6.21615,18.1404 -3.80105,20.55549 1.04027,1.04028 124.42274,1.55645 302.66253,1.26619 l 300.90628,-0.49007 -0.32108,-9.28416 c -0.54491,-15.75707 3.67003,-14.91272 -74.44233,-14.91272 l -69.45,0 0,-9.67875 0,-9.67875 64.61062,0 c 54.13667,0 64.98895,-0.45588 66.94454,-2.81222 1.87339,-2.25728 -4.59515,-27.37197 -32.7811,-127.27558 -19.31324,-68.45487 -36.32157,-128.5894 -37.79624,-133.63229 l -2.68124,-9.16888 9.08278,-2.69822 c 8.15794,-2.42347 9.22491,-2.37684 10.47851,0.45802 0.76765,1.73595 21.50103,74.58543 46.07416,161.88777 24.57313,87.30234 45.89307,162.8692 47.37764,167.92634 l 2.6992,9.19484 -330.90899,0 c -200.91336,0 -330.90901,-0.70192 -330.90901,-1.78673 z m 421.99362,-52.4143 0,-9.67875 19.35749,0 19.35752,0 0,9.67875 0,9.67875 -19.35752,0 -19.35749,0 0,-9.67875 z m 193.05473,-17.57692 c 0.6845,-2.61753 1.56196,-3.49499 2.04521,-2.04522 0.4655,1.39652 -0.0739,3.4595 -1.19884,4.58436 -1.43645,1.43646 -1.68836,0.68069 -0.84637,-2.53914 z M 600.99724,790.89504 c 1.39737,-0.55917 3.06697,-0.49041 3.7102,0.15274 0.64322,0.64323 -0.50008,1.10073 -2.54069,1.01669 -2.25504,-0.0929 -2.71372,-0.55157 -1.16951,-1.16949 z m -77.67967,-5.53713 c -38.53186,-5.24993 -77.36527,-17.32205 -112.62879,-35.01283 -20.01378,-10.0404 -39.64121,-22.21899 -39.66596,-24.61227 -0.0135,-1.29849 3.53654,-7.09705 8.8736,-14.49428 0.25604,-0.35485 6.41798,2.97461 13.69317,7.3988 89.552,54.45837 202.29305,65.39273 297.13441,28.81805 8.53733,-3.29237 16.23267,-5.2386 17.10076,-4.325 0.86808,0.91363 2.9047,4.88794 4.52582,8.83181 l 2.94748,7.1707 -15.75534,6.07589 c -51.90616,20.01716 -120.0277,27.806 -176.22515,20.14913 z m 73.80817,-21.56339 c 1.39737,-0.55916 3.06697,-0.4904 3.71019,0.15275 0.64322,0.64322 -0.50008,1.10075 -2.54067,1.01669 -2.25506,-0.0929 -2.71373,-0.55156 -1.16952,-1.1695 z m 141.33097,-26.60374 c -2.34294,-4.82252 -3.87787,-9.0774 -3.41091,-9.4553 0.46698,-0.37789 6.32368,-3.96285 13.01487,-7.96656 13.16575,-7.8778 14.28787,-7.74291 20.26305,2.4359 l 3.39261,5.77937 -12.1035,7.57479 c -6.65691,4.16614 -13.18183,8.21046 -14.49982,8.9874 -1.59203,0.93848 -3.82623,-1.53046 -6.6563,-7.3556 z M 280.5806,639.77703 c -25.8503,-33.64353 -52.85251,-94.4924 -60.53094,-136.40504 -2.52412,-13.77794 -6.20963,-19.34317 -10.18026,-15.37254 -1.23248,1.23246 -6.81352,2.24086 -12.40234,2.24086 l -10.16148,0 -8.07094,-15.51335 C 169.70798,456.41553 157.57157,444.5764 139.4719,435.93821 l -12.37054,-5.90391 0,-10.36531 0,-10.36529 12.59886,-5.89571 c 17.63545,-8.25265 31.83326,-22.29569 40.48999,-40.04865 l 7.03578,-14.42881 10.27771,0 c 9.1603,0 10.52428,0.54114 12.54547,4.97721 4.15699,9.12361 8.5213,5.1782 13.02029,-11.77057 2.25825,-8.50727 5.24477,-19.4391 6.63676,-24.29294 1.39198,-4.85387 1.95975,-11.10073 1.26169,-13.88197 -2.44747,-9.75156 -13.53085,-21.56102 -25.92404,-27.62237 l -11.87365,-5.80725 -0.12658,-10.06082 -0.12661,-10.06081 10.1627,-5.08006 c 13.53467,-6.76561 20.03709,-13.20802 26.82733,-26.57963 l 5.65222,-11.13055 9.52801,0 c 9.51205,0 9.53717,0.0174 14.97421,10.16267 7.81046,14.5745 10.84729,13.83859 25.96141,-6.29118 27.13983,-36.14628 69.63589,-73.15192 109.63017,-95.46623 34.94276,-19.495935 65.28925,-30.709514 106.86891,-39.490103 21.83561,-4.611143 28.55124,-5.145086 65.93065,-5.241923 31.11139,-0.0805 46.50572,0.73767 60.97612,3.241179 76.30418,13.201331 141.40135,46.825557 195.61614,101.040347 57.56122,57.56123 91.28496,125.68977 102.57949,207.23065 3.91109,28.23621 2.9956,81.78333 -1.85337,108.40201 -9.65498,53.0015 -30.92004,104.06557 -60.22269,144.61336 l -7.98303,11.0466 -7.11807,-5.06456 c -3.91491,-2.7855 -7.11804,-5.76289 -7.11804,-6.61638 0,-0.85349 4.82743,-8.64132 10.72761,-17.3063 21.7748,-31.97837 40.43441,-75.45498 48.96612,-114.09035 6.0734,-27.50306 8.05753,-45.87488 8.05753,-74.60786 0,-90.65577 -35.28439,-175.64245 -99.64234,-240.00036 -51.51803,-51.51805 -112.75727,-82.67201 -188.78446,-96.03945 -19.26389,-3.387063 -83.55089,-3.433401 -102.59479,-0.07395 -91.71714,16.17937 -166.24182,61.00461 -220.3892,132.56004 -10.75306,14.21015 -12.15011,19.40124 -6.09362,22.64258 3.13039,1.67533 3.85632,4.00439 3.79217,12.16654 l -0.0793,10.09458 -9.76074,4.58129 c -12.56384,5.89696 -21.22983,14.66756 -27.83793,28.17404 -2.90592,5.9395 -5.91504,10.79906 -6.68694,10.79906 -3.65893,0 -17.49969,55.65858 -17.49969,70.37244 0,7.81553 0.44722,8.43741 10.16268,14.13084 5.58949,3.27553 12.99373,7.0496 16.45388,8.38683 5.97636,2.30966 6.29119,2.9337 6.29119,12.46916 l 0,10.0378 -13.06632,6.33439 c -22.23758,10.78051 -22.53512,11.19846 -21.21331,29.79696 3.37325,47.46406 24.76954,106.71884 54.69948,151.48459 6.86834,10.27291 12.4879,19.07512 12.4879,19.56051 0,1.71744 -10.67968,10.25409 -12.90365,10.31438 -1.24136,0.0337 -4.76694,-3.20541 -7.83459,-7.19789 z M 208.67439,447.6538 c 4.74133,-5.85563 12.71747,-13.6938 17.72478,-17.41815 6.14836,-4.57305 9.10418,-8.18676 9.10418,-11.13057 0,-2.39745 -0.82144,-4.35902 -1.82541,-4.35902 -2.99266,0 -24.81412,-21.05827 -29.23668,-28.21411 -2.25345,-3.64616 -5.30454,-6.6294 -6.78023,-6.6294 -1.47565,0 -6.25523,4.73133 -10.62127,10.5141 -4.36602,5.78277 -12.66957,14.08632 -18.45233,18.45235 -11.76078,8.87948 -13.02329,13.22956 -5.19079,17.88539 6.89619,4.09932 23.11799,20.3392 27.23443,27.26479 1.78956,3.01084 4.58213,5.15073 6.31544,4.83939 1.70902,-0.30698 6.98654,-5.34912 11.72788,-11.20477 z m -11.88605,7.01215 c 0,-0.40197 1.5244,-1.92637 3.38757,-3.38757 3.07019,-2.40781 3.13865,-2.33936 0.73083,0.73087 -2.5288,3.22447 -4.1184,4.24991 -4.1184,2.6567 z m -16.63781,-19.11059 -3.68758,-4.35544 4.35546,3.68759 c 2.39547,2.02816 4.35544,3.98812 4.35544,4.35544 0,1.54907 -1.5579,0.40544 -5.02332,-3.68759 z m -4.65544,-27.22228 c 0,-0.33313 2.83103,-3.16418 6.29119,-6.29118 l 6.29119,-5.68548 -5.68551,6.2912 c -5.29965,5.86427 -6.89687,7.18094 -6.89687,5.68546 z m 82.29599,-136.14625 c 5.91521,-6.01048 10.50683,-11.58577 10.20355,-12.38951 -1.56086,-4.13675 -19.54238,-21.20455 -22.33967,-21.20455 -4.23936,0 -21.76612,17.2963 -21.76612,21.47989 0,3.20921 18.57573,23.04236 21.58147,23.04236 0.86118,0 6.40552,-4.91768 12.32077,-10.92819 z m -4.94688,-1.17024 c 8.02167,-8.54671 9.75966,-10.0835 9.75966,-8.62998 0,0.31067 -4.13766,4.44833 -9.19482,9.1948 l -9.19483,8.62998 8.62999,-9.1948 z m 50.60474,368.84849 c 1.40952,-2.34708 2.97942,-3.85074 3.48868,-3.34149 0.50924,0.50927 -0.64398,2.42958 -2.56275,4.26739 -3.33325,3.19264 -3.3745,3.15138 -0.92593,-0.9259 z m 536.96568,-0.58385 c -1.93292,-2.13585 -3.15678,-4.22826 -2.71971,-4.64979 0.4371,-0.42152 2.35978,1.326 4.27263,3.88336 4.22457,5.64799 3.28465,6.11187 -1.55292,0.76643 z M 209.97565,492.78948 c 1.39736,-0.55917 3.06695,-0.49042 3.71017,0.15273 0.64322,0.64324 -0.50006,1.10075 -2.54068,1.01671 -2.25502,-0.0928 -2.71373,-0.55158 -1.16949,-1.16952 z m 27.61627,-21.1001 c 0.0928,-2.25506 0.55155,-2.71373 1.16951,-1.16952 0.55917,1.39735 0.49041,3.06693 -0.15272,3.7102 -0.64324,0.64323 -1.10076,-0.50009 -1.01671,-2.54068 z m 79.11739,-47.46862 c -5.31218,-11.34167 -20.12957,-25.60485 -29.97555,-28.85432 -6.61999,-2.18479 -6.70711,-2.35818 -6.62881,-13.19433 l 0.0793,-10.98045 9.69364,-4.54841 c 12.10826,-5.68142 20.97737,-14.68893 26.88735,-27.30693 l 4.57286,-9.76329 9.93001,0 c 9.8391,0 9.96843,0.0791 14.12695,8.63858 6.02292,12.39695 16.33446,23.00786 27.51907,28.31797 l 9.7062,4.60819 0,10.82663 0,10.82662 -9.80649,4.59311 c -11.43363,5.35522 -21.98605,16.28444 -27.28147,28.25554 -3.73957,8.45393 -3.75596,8.46388 -13.96912,8.46388 l -10.22515,0 -4.62886,-9.88279 z m 26.34408,-29.11301 c 5.79192,-5.47774 10.53075,-11.2521 10.53075,-12.83187 0,-3.95776 -17.63531,-21.61989 -21.64817,-21.68113 -3.65864,-0.0557 -22.87411,17.82517 -22.87411,21.28554 0,2.13262 20.39751,23.187 22.46359,23.187 0.54847,0 5.73602,-4.4818 11.52794,-9.95954 z m -21.5309,-4.07464 -5.68548,-6.29119 6.29118,5.68548 c 5.86428,5.29965 7.18097,6.89689 5.68549,6.89689 -0.33315,0 -3.16417,-2.83103 -6.29119,-6.29118 z m -8.58912,-8.46917 c 0,-1.02043 4.13768,-5.73881 9.19482,-10.4853 l 9.19483,-8.62998 -8.71089,9.64273 c -4.79098,5.30352 -8.92867,10.02191 -9.19483,10.48531 -0.26616,0.46344 -0.48393,0.007 -0.48393,-1.01276 z m 25.94873,-10.88834 -3.68758,-4.35543 4.35543,3.68759 c 2.39548,2.02815 4.35544,3.9881 4.35544,4.35542 0,1.54909 -1.55786,0.40545 -5.02329,-3.68758 z m -217.03435,47.90983 c 0.0155,-5.32332 0.39046,-7.27127 0.83541,-4.32883 0.44493,2.94245 0.43305,7.29789 -0.0265,9.67875 -0.45947,2.38088 -0.82352,-0.0265 -0.80899,-5.34992 z m 180.25507,-9.19482 -3.68759,-4.35544 4.35544,3.6876 c 4.09304,3.4654 5.23667,5.02329 3.68759,5.02329 -0.36732,0 -2.32727,-1.95996 -4.35544,-4.35545 z m 603.54757,-10.16269 c 0.0395,-3.19398 0.47328,-4.26629 0.96407,-2.38285 0.49078,1.88343 0.45853,4.49669 -0.0718,5.80726 -0.53026,1.31056 -0.93182,-0.23042 -0.89237,-3.42441 z m 27.02875,-4.83937 c 0,-2.66166 0.43939,-3.75052 0.97639,-2.41969 0.53698,1.33082 0.53698,3.50856 0,4.83938 -0.537,1.33083 -0.97639,0.24196 -0.97639,-2.41969 z M 387.07198,381.83829 c 0,-5.85565 0.36289,-8.25112 0.80641,-5.32332 0.44352,2.92783 0.44352,7.71881 0,10.64665 -0.44352,2.9278 -0.80641,0.53232 -0.80641,-5.32333 z m -227.06289,2.90363 c 2.50048,-2.66165 4.98189,-4.83937 5.51422,-4.83937 0.53231,0 -1.07799,2.17772 -3.57848,4.83937 -2.50051,2.66165 -4.9819,4.83937 -5.51423,4.83937 -0.53234,0 1.07798,-2.17772 3.57849,-4.83937 z m 651.4916,1.14839 c -0.59664,-0.96537 0.65857,-1.29931 2.78936,-0.74211 4.51997,1.18199 5.09133,2.49735 1.0848,2.49735 -1.53415,0 -3.27753,-0.78984 -3.87416,-1.75524 z m 0.81383,-13.98558 c -1.36086,-5.71551 -4.04119,-14.97195 -5.95632,-20.56988 l -3.48201,-10.17808 6.91254,-2.88823 c 10.30255,-4.30468 11.66499,-3.72807 14.90157,6.30656 4.37197,13.55481 9.28811,33.70877 8.43149,34.56538 -0.40996,0.40998 -4.70261,1.2878 -9.53917,1.95073 l -8.79381,1.20531 -2.47429,-10.39179 z M 301.31886,353.7699 c 2.50051,-2.66165 4.9819,-4.83937 5.51424,-4.83937 0.53234,0 -1.07798,2.17772 -3.5785,4.83937 -2.5005,2.66166 -4.98189,4.83939 -5.51423,4.83939 -0.53232,0 1.07798,-2.17773 3.57849,-4.83939 z m 57.8256,-0.48393 c -2.40781,-3.07021 -2.33934,-3.13868 0.73087,-0.73085 1.86317,1.46119 3.38756,2.9856 3.38756,3.38755 0,1.5932 -1.58963,0.56779 -4.11843,-2.6567 z m -144.52675,-3.19233 c 1.37278,-1.4896 2.801,-2.41865 3.17376,-2.06453 1.1482,1.09072 -1.76179,4.77293 -3.77196,4.77293 -1.04378,0 -0.77462,-1.21878 0.5982,-2.7084 z m 605.11932,-19.90718 c 1.39737,-0.55919 3.06698,-0.49043 3.71021,0.15273 0.64323,0.64323 -0.50009,1.10074 -2.54068,1.01668 -2.25505,-0.0928 -2.71373,-0.55156 -1.16953,-1.16949 z m -37.37047,-21.88451 c -0.67818,-1.09732 0.0989,-1.42181 1.8215,-0.76078 3.35355,1.28687 3.96711,2.67436 1.18267,2.67436 -1.00182,0 -2.35371,-0.86112 -3.00417,-1.91358 z m -6.16871,-17.92787 c -12.21577,-18.42588 -46.2275,-52.58745 -64.49988,-64.78402 -27.00795,-18.02744 -57.28185,-30.96901 -90.0124,-38.4787 -16.36678,-3.75524 -68.06525,-5.13209 -86.4149,-2.3015 l -8.9849,1.38603 -1.323,-8.82248 c -0.72767,-4.85237 -0.92571,-9.21979 -0.44015,-9.70536 5.53557,-5.53557 74.42209,-5.46061 100.06658,0.10898 54.32244,11.79781 98.14136,35.7006 137.25453,74.87097 12.5152,12.53348 32.91921,38.51863 38.07631,48.49135 2.76228,5.34164 2.68846,5.48289 -4.88445,9.34631 -4.22901,2.15749 -8.10412,3.9227 -8.61132,3.9227 -0.50722,0 -5.1091,-6.31539 -10.22642,-14.03419 z m -507.78674,3.74973 c 0,-0.33314 2.83104,-3.16417 6.29119,-6.2912 l 6.29119,-5.68547 -5.68548,6.2912 c -5.29966,5.86428 -6.8969,7.18094 -6.8969,5.68547 z m 474.15466,-37.62536 -6.67092,-7.25907 7.25906,6.67094 c 3.99249,3.669 7.25906,6.93557 7.25906,7.25907 0,1.47817 -1.63806,0.0857 -7.8472,-6.67094 z m 19.3575,-19.3575 -6.67094,-7.25908 7.25907,6.67094 c 3.99251,3.669 7.25907,6.93559 7.25907,7.25907 0,1.47817 -1.63806,0.0857 -7.8472,-6.67093 z M 268.41111,224.28173 c 0,-0.41843 1.35187,-1.27952 3.00415,-1.91356 1.72267,-0.66106 2.4997,-0.33655 1.82151,0.76076 -1.13679,1.83936 -4.82566,2.7206 -4.82566,1.1528 z m 474.01194,-4.56254 c -2.40782,-3.07021 -2.33935,-3.13868 0.73086,-0.73083 3.22448,2.52878 4.24989,4.11841 2.65671,4.11841 -0.40196,0 -1.92637,-1.52441 -3.38757,-3.38758 z m 77.53042,-15.486 -4.69285,-5.3233 5.32331,4.69285 c 2.92781,2.58109 5.32331,4.97657 5.32331,5.3233 0,1.51819 -1.56757,0.28259 -5.95377,-4.69285 z m -497.34134,-1.45182 c 2.50051,-2.66164 4.98191,-4.83937 5.51424,-4.83937 0.53233,0 -1.07798,2.17773 -3.57849,4.83937 -2.50049,2.66168 -4.9819,4.8394 -5.51424,4.8394 -0.53231,0 1.07799,-2.17772 3.57849,-4.8394 z m 516.69883,-17.90568 -4.69285,-5.32331 5.32331,4.69285 c 4.97545,4.3862 6.21105,5.95377 4.69287,5.95377 -0.34674,0 -2.74223,-2.39549 -5.32333,-5.32331 z m -536.05636,-1.4518 c 2.50052,-2.66168 4.98193,-4.83939 5.51423,-4.83939 0.53235,0 -1.07795,2.17771 -3.57846,4.83939 -2.50052,2.66165 -4.98191,4.83937 -5.51424,4.83937 -0.53234,0 1.07797,-2.17772 3.57847,-4.83937 z m 241.60588,3.51704 c 1.39736,-0.55921 3.06695,-0.49043 3.71019,0.15291 0.64323,0.64324 -0.50008,1.10075 -2.54067,1.0167 -2.25505,-0.0928 -2.71373,-0.5516 -1.16952,-1.16952 z m 50.32952,0 c 1.39735,-0.55921 3.06695,-0.49043 3.71018,0.15291 0.64324,0.64324 -0.50008,1.10075 -2.54067,1.0167 -2.25504,-0.0928 -2.71372,-0.5516 -1.16951,-1.16952 z m -251.28461,-5.4528 c 2.5005,-2.66166 4.9819,-4.83938 5.51425,-4.83938 0.53233,0 -1.07799,2.17772 -3.5785,4.83938 -2.50051,2.66164 -4.98191,4.83937 -5.51423,4.83937 -0.53234,0 1.07798,-2.17773 3.57848,-4.83937 z m 450.88333,-2.41969 -4.69287,-5.32331 5.32333,4.69286 c 2.9278,2.58109 5.32331,4.97657 5.32331,5.32331 0,1.51816 -1.56758,0.28258 -5.95377,-4.69286 z M 518.12293,167.08425 c 0,-1.00184 0.86112,-2.35373 1.91359,-3.00417 1.09728,-0.67817 1.42181,0.0989 0.76077,1.82151 -1.28688,3.35353 -2.67436,3.9671 -2.67436,1.18266 z m -193.57505,-4.95363 c 2.50051,-2.66166 4.98192,-4.83937 5.51425,-4.83937 0.53233,0 -1.07799,2.17771 -3.5785,4.83937 -2.50051,2.66165 -4.98191,4.83937 -5.51423,4.83937 -0.53233,0 1.07799,-2.17772 3.57848,-4.83937 z m 489.59834,-2.41969 -4.69287,-5.32332 5.32332,4.69288 c 2.92782,2.58108 5.32332,4.97656 5.32332,5.3233 0,1.51818 -1.56757,0.28258 -5.95377,-4.69286 z M 542.92473,94.024901 c 1.39735,-0.559209 3.06693,-0.490432 3.71018,0.152921 0.64324,0.643221 -0.50007,1.100736 -2.54067,1.016703 -2.25504,-0.09302 -2.71371,-0.55159 -1.16951,-1.169533 z m 51.21324,-0.01927 c 1.88342,-0.490807 4.49669,-0.458529 5.80724,0.07192 1.31056,0.530228 -0.2304,0.931788 -3.42438,0.892338 -3.194,-0.03946 -4.26629,-0.473279 -2.38286,-0.964086 z M 557.40238,66.809213 c 7.23074,-0.373465 18.55488,-0.370678 25.16475,0.0059 6.60987,0.376852 0.69378,0.68241 -13.14681,0.679022 -13.84063,-0.0038 -19.24871,-0.311713 -12.01794,-0.685178 z"
     style="fill:#3b3b3b;fill-opacity:1" />
</svg>
